<?xml version="1.0" ?><svg viewBox="0 0 512 512" xmlns="http://www.w3.org/2000/svg"><title/><g id="Appointment"><path d="M404.65,113.6133a26.3455,26.3455,0,0,0-26.3457-26.3477H341.5439V69.832a12,12,0,0,0-24,0V87.2656H143.1074V69.832a12,12,0,1,0-24,0V87.2656H82.3457A26.3455,26.3455,0,0,0,56,113.6133v14.666H404.65Z"/><path d="M349.1016,240.373A106.8975,106.8975,0,1,0,456,347.27,106.8968,106.8968,0,0,0,349.1016,240.373Zm63.5312,122.4043a6.9151,6.9151,0,0,1-6.916,6.9161H371.5254v34.1914a6.9177,6.9177,0,0,1-6.916,6.916H333.5957a6.9164,6.9164,0,0,1-6.916-6.916V369.6934H292.4883a6.9151,6.9151,0,0,1-6.916-6.9161V331.7637a6.9151,6.9151,0,0,1,6.916-6.916H326.68V290.6563a6.9151,6.9151,0,0,1,6.916-6.9161h31.0137a6.9164,6.9164,0,0,1,6.916,6.9161v34.1914h34.1914a6.9151,6.9151,0,0,1,6.916,6.916Z"/><path d="M171.9063,357.625V319.66h49.3574a130.5449,130.5449,0,0,1,26.5693-55.1993V251.3262h12.53a130.4783,130.4783,0,0,1,63.3974-32.44V182.9922h45.5567v35.1094a129.7034,129.7034,0,0,1,35.334,10.82V152.2793H56v213.709a26.3464,26.3464,0,0,0,26.3467,26.3476H226.3691a131.4143,131.4143,0,0,1-7.6816-34.7109ZM247.833,182.9922H293.39v37.9629H247.833Zm-75.9267,0h45.5556v37.9629H171.9063Zm0,68.334h45.5556v37.9629H171.9063Zm-30.37,106.2988H95.98V319.66h45.5566Zm0-68.3359H95.98V251.3262h45.5566Z"/></g></svg>